<?xml version="1.0" encoding="UTF-8" standalone="no"?>
<svg
   xmlns:dc="http://purl.org/dc/elements/1.1/"
   xmlns:cc="http://creativecommons.org/ns#"
   xmlns:rdf="http://www.w3.org/1999/02/22-rdf-syntax-ns#"
   xmlns:svg="http://www.w3.org/2000/svg"
   xmlns="http://www.w3.org/2000/svg"
   id="svg8"
   version="1.1"
   viewBox="0 0 210 297"
   height="297mm"
   width="210mm">
  <defs
     id="defs2" />
  <metadata
     id="metadata5">
    <rdf:RDF>
      <cc:Work
         rdf:about="">
        <dc:format>image/svg+xml</dc:format>
        <dc:type
           rdf:resource="http://purl.org/dc/dcmitype/StillImage" />
        <dc:title></dc:title>
      </cc:Work>
    </rdf:RDF>
  </metadata>
  <g
     id="layer1">
    <g
       transform="matrix(39.742442,0,0,39.742442,-3366.6676,-1386.244)"
       id="g963">
      <ellipse
         style="fill:#ffffff;fill-opacity:1;stroke:none;stroke-width:5.84938;stroke-linecap:round;stroke-linejoin:round;stroke-miterlimit:4;stroke-dasharray:none;stroke-opacity:0.0947075;paint-order:stroke fill markers"
         id="path869"
         cx="87.319481"
         cy="38.357338"
         rx="2.6264131"
         ry="2.6264999" />
      <path
         style="fill:#4527a0;fill-opacity:1;stroke-width:0;stroke-linecap:round;stroke-linejoin:round;paint-order:stroke fill markers"
         id="path835"
         d="m 85.244744,39.728917 c 0.173507,-0.133396 0.365944,-0.224589 0.564247,-0.287438 0.05499,-0.01741 0.110861,-0.03044 0.166291,-0.04566 0.177249,-0.03959 0.358934,-0.06324 0.539331,-0.0478 0.08228,0.007 0.10983,0.01616 0.188626,0.03447 0.138872,0.038 0.263273,0.115217 0.373242,0.223595 0.05223,0.05344 0.101431,0.111362 0.143569,0.176692 0.03397,0.05396 0.06461,0.110442 0.09245,0.169307 0,0 0.408987,-0.689004 0.408987,-0.689004 v 0 c -0.03324,-0.05934 -0.06562,-0.11937 -0.09944,-0.178234 -0.04934,-0.06645 -0.105376,-0.124593 -0.166648,-0.17443 -0.128904,-0.0945 -0.264611,-0.17811 -0.413336,-0.215139 -0.03218,-0.0052 -0.06419,-0.01244 -0.09653,-0.01617 -0.227218,-0.02544 -0.454286,0.01293 -0.676691,0.06739 -0.237836,0.05857 -0.477689,0.117555 -0.703513,0.228345 0,0 -0.320582,0.753941 -0.320582,0.753941 z" />
      <path
         style="fill:none;fill-opacity:1;stroke:#4527a0;stroke-width:0.291668;stroke-linecap:butt;stroke-linejoin:miter;stroke-miterlimit:4;stroke-dasharray:none;stroke-opacity:1"
         d="m 85.513332,37.81917 c 0,0 0,-1.543403 1.852084,-1.543403"
         id="path837" />
      <path
         id="path837-5"
         d="m 89.2175,37.81917 c 0,0 0,-1.543403 -1.852084,-1.543403"
         style="fill:none;fill-opacity:1;stroke:#4527a0;stroke-width:0.291669;stroke-linecap:butt;stroke-linejoin:miter;stroke-miterlimit:4;stroke-dasharray:none;stroke-opacity:1" />
      <path
         style="fill:#4527a0;fill-opacity:0.996078;stroke:none;stroke-width:0.348;stroke-linecap:butt;stroke-linejoin:miter;stroke-miterlimit:4;stroke-dasharray:none;stroke-opacity:1"
         d="m 88.384758,36.804934 -1.601425,0.765899 0.417763,0.557017 1.183662,-1.322916"
         id="path881" />
      <path
         d="m 89.380256,39.728917 c -0.173507,-0.133396 -0.365944,-0.224589 -0.564247,-0.287438 -0.05499,-0.01741 -0.110861,-0.03044 -0.166291,-0.04566 -0.177249,-0.03959 -0.358934,-0.06324 -0.539331,-0.0478 -0.08228,0.007 -0.10983,0.01616 -0.188626,0.03447 -0.138872,0.038 -0.263273,0.115217 -0.373242,0.223595 -0.05223,0.05344 -0.101431,0.111362 -0.143569,0.176692 -0.03397,0.05396 -0.06461,0.110442 -0.09245,0.169307 0,0 -0.408987,-0.689004 -0.408987,-0.689004 v 0 c 0.03324,-0.05934 0.06562,-0.11937 0.09944,-0.178234 0.04934,-0.06645 0.105376,-0.124593 0.166648,-0.17443 0.128904,-0.0945 0.264611,-0.17811 0.413336,-0.215139 0.03218,-0.0052 0.06419,-0.01244 0.09653,-0.01617 0.227218,-0.02544 0.454286,0.01293 0.676691,0.06739 0.237836,0.05857 0.477689,0.117555 0.703513,0.228345 0,0 0.320582,0.753941 0.320582,0.753941 z"
         id="path835-5"
         style="fill:#4527a0;fill-opacity:1;stroke:none;stroke-width:0;stroke-linecap:round;stroke-linejoin:round;stroke-opacity:1;paint-order:stroke fill markers" />
    </g>
  </g>
</svg>
