<?xml version="1.0" standalone="no"?>
<!DOCTYPE svg PUBLIC "-//W3C//DTD SVG 20010904//EN"
 "http://www.w3.org/TR/2001/REC-SVG-20010904/DTD/svg10.dtd">
<svg version="1.0" xmlns="http://www.w3.org/2000/svg"
 width="1123.000000pt" height="1123.000000pt" viewBox="0 0 1123.000000 1123.000000"
 preserveAspectRatio="xMidYMid meet">
<metadata>
Created by potrace 1.14, written by Peter Selinger 2001-2017
</metadata>
<g transform="translate(0.000000,1123.000000) scale(0.100000,-0.100000)"
fill="#000000" stroke="none">
<path d="M5250 9339 c-1161 -100 -1970 -616 -2384 -1517 -126 -276 -236 -714
-236 -944 l0 -68 210 0 210 0 10 26 c6 14 10 45 10 68 0 58 34 248 65 368 152
585 508 1048 1015 1321 311 167 694 271 1135 308 187 15 679 6 844 -15 539
-71 954 -233 1291 -503 421 -338 698 -867 763 -1461 l12 -107 215 0 215 0 -3
85 c-1 47 -12 141 -23 210 -62 392 -202 757 -409 1067 -108 163 -187 258 -331
399 -429 419 -982 660 -1719 750 -159 19 -725 28 -890 13z"/>
<path d="M5962 7767 c-644 -309 -1180 -567 -1189 -573 -16 -10 19 -60 291
-422 170 -227 312 -412 316 -412 5 0 367 402 807 892 439 491 835 935 881 985
46 51 80 93 75 92 -4 0 -536 -253 -1181 -562z"/>
<path d="M4545 5523 c-254 -31 -369 -54 -705 -139 -393 -98 -634 -176 -838
-269 l-79 -37 -237 -555 c-130 -306 -235 -558 -233 -559 2 -2 61 35 133 82
437 290 1053 474 1584 474 186 0 282 -11 434 -49 246 -62 477 -209 658 -418
40 -46 113 -154 177 -261 l108 -182 114 192 c107 181 121 199 234 313 208 210
382 308 675 377 86 20 120 22 355 22 240 0 272 -2 419 -28 477 -83 877 -239
1213 -471 53 -37 93 -61 90 -54 -88 217 -472 1107 -480 1116 -39 38 -398 170
-657 242 -571 157 -875 211 -1190 211 -297 0 -479 -44 -703 -171 l-67 -38
-113 59 c-220 115 -383 151 -683 149 -99 -1 -192 -4 -209 -6z"/>
</g>
</svg>
